<?xml version="1.0" encoding="utf-8"?>
<!-- Generator: Adobe Illustrator 25.0.1, SVG Export Plug-In . SVG Version: 6.00 Build 0)  -->
<svg version="1.0" id="katman_1" xmlns="http://www.w3.org/2000/svg" xmlns:xlink="http://www.w3.org/1999/xlink" x="0px" y="0px"
	 viewBox="0 0 560 400" style="enable-background:new 0 0 560 400;" xml:space="preserve">
<style type="text/css">
	.st0{fill:#231F20;}
	.st1{fill:#94C93D;}
	.st2{fill:#F3F3F9;}
	.st3{fill:#07703C;}
	.st4{fill:#ED1A37;}
	.st5{fill:#FFFFFF;}
</style>
<g transform="matrix(1.02807 0 0 1.02807 135.315 100)">
	<path class="st0" d="M174.5,40.3c8.2-27.4,14-38.1,14.1-38.2l7.5-13.4l-56.9,26.2l3.6-11.3L91.7,29.3l-2.9,9L45.7,58.6l-0.6,0.9
		c-1,0.9-3.2,3.9-10.8,14.4C21.1,92.2-3.4,126.2-26,151.8l-15.2,16.5l57.6-23.7c-6.8,16.7-21,50.7-29.3,64.1l-8.9,14.2l86.1-40.4
		c6.4-2.8,12.3-6.6,17.6-11.2c0.5-0.5,1-0.9,1.4-1.4c1.8,0.3,3.7,0.3,5.5,0c0.5-0.1,1-0.2,1.5-0.3c2.2-0.5,4.4-1.3,6.5-2.2
		L212,113.6l0.8-1.1c0.6-0.8,58-81.8,94.3-123.1l15.5-17.8L174.5,40.3z"/>
	<path class="st1" d="M-10.3,210.4c9.7-15.6,27-58.1,32.3-71.5l-51.4,21.2l5.7-6.2C10.5,116.7,47.1,62,47.5,61.5l0.3-0.4l43.6-20.4
		l2.9-9.1l43.4-21.8l-3.5,11l54.6-25.1l-2.9,5.1c-0.1,0.1-6.9,12.5-16.3,45.5l141-65.4l-5.9,6.7c-36.3,41.4-93.9,122.6-94.5,123.4
		l-0.3,0.4L95.5,164.6c-1.9,0.9-3.8,1.6-5.9,2.1c-0.4,0.1-0.8,0.2-1.3,0.2c-2.1,0.3-4.1,0.2-6.2-0.2c-0.8,0.8-1.6,1.7-2.4,2.4
		c-5,4.4-10.7,8-16.8,10.7l-76.6,36L-10.3,210.4z"/>
	<path class="st0" d="M184.2-0.4c0,0-7.4,13.1-17.6,49.8L303.3-14c-36.8,41.9-94.6,123.5-94.6,123.5L94.8,162.8
		c-1.8,0.8-3.6,1.5-5.5,1.9c-0.4,0.1-0.7,0.1-1.1,0.2c-2.1,0.3-4.2,0.2-6.3-0.4l-0.3-0.1c-1,1.1-2,2.2-3.1,3.2
		c-4.9,4.3-10.4,7.8-16.3,10.3l-70.9,33.4c11.7-18.9,34.1-75.9,34.1-75.9l-47.7,19.7c34.7-37.8,71.4-92.7,71.4-92.7l43.8-20.6
		l2.9-9.2l38.6-19.5l-3.4,10.8L184.2-0.4 M193.2-8.6l-10.5,4.8l-45.5,20.9l0.9-2.7l2.7-8.5l-7.9,4L94.1,29.4l-1.4,0.7l-0.5,1.5
		l-2.4,7.6L47.5,59.1l-0.9,0.4L46,60.4c-1.3,0-37.9,54.6-71.1,92.2l-11.4,12.4l15.6-6.5l39.5-16.3c-6.6,16.5-21.7,53-30.5,67
		l-6.7,10.7l11.5-5.4l70.9-33.3c6.3-2.8,12.1-6.5,17.3-11c0.6-0.6,1.3-1.2,1.8-1.8c1.9,0.3,3.9,0.3,5.8,0c0.5-0.1,0.9-0.2,1.4-0.3
		c2.1-0.5,4.2-1.2,6.2-2.2l0.1-0.1h0.1l113.7-53.2l0.9-0.4l0.6-0.8c0.6-0.8,58.1-82,94.3-123.2l11.7-13.4l-16.1,7.5L172.5,42.6
		c8.7-29.7,14.9-41,15-41.1L193.2-8.6z"/>
	<path class="st2" d="M52.6,64.4l44.5-20.9l2.9-9.2l27.4-13.8l-3.3,10.3l51.7-23.9c0,0-5.9,14.5-15.4,48.8L287.9-3.5
		c0,0-20.1,18.9-81.7,107.7L93.5,157c-3,1.3-6.1,2.6-9.8,1.6h-0.2c-1-0.3-1.8-0.8-2.6-1.5c-1.4,2.1-3,4-4.9,5.6
		c-4.5,4-9.7,7.2-15.2,9.6L2.5,199.6c12.1-20.4,31-73.9,31-73.9L-5,141.8C10,126,52.7,64.4,52.6,64.4"/>
	<g>
		<path class="st3" d="M104.4,37.2l13.8-6.9l-3.1,9.9l10.8-5.1l-2.8,8.9l-10.8,5.1l-7.6,24.1c-0.9,2.9-0.9,3.6,1.5,2.4l4.8-2.2
			c2-1,3.9-2.4,5.5-4l-4.3,11.1l-17,8c-4.3,2-7.1,0.9-3.5-10.5l7.1-22.4l-4.2,2l2.8-8.9l4.2-2L104.4,37.2z"/>
		<path class="st3" d="M144.3,26.4l-1.1,4.6h0.1c1.4-2.6,3-5.5,5-6.4l11-5.2c6.4-3,7,2.2,3.8,12.4l-5.9,18.5c-2,6.3-1.9,7.8-1.8,9.8
			l-16.6,7.8c2.1-3.5,3.7-7.3,4.8-11.2l7.1-22.4c0.9-2.8,0.6-3.5-1-2.7l-5,2.3c-1.7,0.8-2.6,2-3.4,4.8l-7.1,22.4
			c-2,6.3-1.9,7.8-1.8,9.8l-16.6,7.8c2.1-3.5,3.7-7.3,4.8-11.2l7.8-24.6c2-6.3,1.9-7.8,1.8-9.8L144.3,26.4z"/>
		<path class="st3" d="M32.7,109.4c-1.6,2.3-3.7,5.6-4.6,7.3c-0.7,1.2-1.2,2.5-1.6,3.9l-12.8,6c4-4.6,7.7-9.4,11.2-14.4l30.3-43.8
			l14-6.6L58,96.6h0.1l21.8-39.8l14.2-6.6L83.3,84.3c-2.2,7-2.4,8.1-2.6,11l-16,7.5c0.8-1.4,1.4-2.5,2.1-4c0.8-1.9,1.5-3.9,2.1-5.9
			L75,73.1h-0.1l-18.3,33.3L41,113.8l9.3-29.1h-0.1L32.7,109.4z"/>
	</g>
	<path class="st4" d="M38,132.2c3.5-8.7,4.4-12.7,3.7-15.3l40.1-18.5c11.6-5.4,13.2,0.2,6.8,19.2l-9,29.6c-2.7,8.8-9.4,14.7-21,20.1
		L16,187.2c2.3-4.1,3.7-7.8,7.1-16.8L38,132.2z M44.6,160.8l10.9-5.1c3.4-1.6,4.4-3.2,6.5-9.4l7.8-22.9c2.1-6.3,2-7.4-1.4-5.7
		l-9,4.1L44.6,160.8z"/>
	<path class="st4" d="M108.2,121.5l-2,6.4c-1.5,4.9-0.8,6.3,2.4,4.8l19.4-9c3.8-1.7,7.2-4.1,10.1-7.2l-6.7,16.8L91.2,152
		c-9,4.2-9.6-0.9-5.2-15l8.6-26.8c4.5-14.1,9-21.7,18.1-25.9l30.7-14.4c9-4.3,9.6,0.9,5.2,15l-6.6,20.8L108.2,121.5z M126.5,101.6
		l2.9-9.2c1.3-3.9,1.1-5.2-1.2-4.1l-8.3,3.9c-2.2,1-3.4,2.9-4.7,6.8l-2.9,9.2L126.5,101.6z"/>
	<path class="st4" d="M236.1,38.8c2.4-3.5,5.7-8.4,7-10.9c1.1-1.8,1.9-3.8,2.4-5.8l20.1-9.4c-6.2,6.8-11.9,14.1-17.2,21.7
		l-45.1,65.2l-25.2,11.7l16.6-51.8l-0.2,0.1l-35.4,60.6l-21.1,9.9l16.2-50.8c3.3-10.4,3.5-12,3.9-16.3l23.8-11.1
		c-1.2,2.1-2,3.7-3.1,6c-1.2,2.8-2.3,5.7-3.1,8.7l-9.1,29.3l0.2-0.1l29.7-50.7L224.4,32l-13.9,43.3l0.2-0.1L236.1,38.8z"/>
	<path class="st5" d="M52.6,64.4l44.5-20.9l2.9-9.2l27.4-13.8l-3.3,10.3l51.7-23.9c0,0-5.9,14.5-15.4,48.8L287.9-3.5
		c0,0-20.1,18.9-81.7,107.7L93.5,157c-3,1.3-6.1,2.6-9.8,1.6h-0.2c-1-0.3-1.8-0.8-2.6-1.5c-1.4,2.1-3,4-4.9,5.6
		c-4.5,4-9.7,7.2-15.2,9.6L2.5,199.7c12.1-20.4,31-73.9,31-73.9L-5,141.8C10,126,52.7,64.4,52.6,64.4"/>
	<path class="st3" d="M104.4,37.2l13.8-6.9l-3.1,9.9l10.8-5.1l-2.8,8.9l-10.8,5.1l-7.6,24.1c-0.9,2.9-0.9,3.6,1.5,2.4l4.8-2.2
		c2-1,3.9-2.4,5.5-4l-4.3,11.1l-17,8c-4.3,2-7.1,0.9-3.5-10.5l7.1-22.4l-4.2,2l2.8-8.9l4.2-2L104.4,37.2z"/>
	<path class="st3" d="M144.3,26.4l-1.1,4.6h0.1c1.4-2.6,3-5.5,5-6.4l11-5.2c6.4-3,7,2.2,3.8,12.4l-5.9,18.5c-2,6.3-1.9,7.8-1.8,9.8
		l-16.6,7.8c2.1-3.5,3.7-7.3,4.8-11.2l7.1-22.4c0.9-2.8,0.6-3.5-1-2.7l-5,2.3c-1.7,0.8-2.6,2-3.4,4.8l-7.1,22.4
		c-2,6.3-1.9,7.8-1.8,9.8l-16.6,7.8c2.1-3.5,3.7-7.3,4.8-11.2l7.8-24.7c2-6.3,1.9-7.8,1.8-9.8L144.3,26.4z"/>
	<path class="st3" d="M32.7,109.4c-1.6,2.3-3.7,5.6-4.6,7.3c-0.7,1.2-1.2,2.5-1.6,3.9l-12.8,6c4-4.6,7.7-9.4,11.2-14.4l30.3-43.9
		l14-6.6L58,96.6h0.1l21.8-39.8l14.2-6.6L83.3,84.3c-2.2,7-2.4,8.1-2.6,11l-16,7.5c0.8-1.4,1.4-2.5,2.1-4c0.8-1.9,1.5-3.9,2.1-5.9
		l6.1-19.7h-0.1l-18.3,33.3L41,113.8l9.3-29.1h-0.1L32.7,109.4z"/>
	<path class="st4" d="M38,132.2c3.5-8.7,4.4-12.7,3.7-15.3l40.1-18.5c11.6-5.4,13.2,0.2,6.8,19.2l-9,29.6c-2.7,8.8-9.4,14.7-21,20.1
		L16,187.2c2.3-4.1,3.7-7.8,7.1-16.8L38,132.2z M44.6,160.8l10.9-5.1c3.4-1.6,4.4-3.2,6.5-9.4l7.8-22.9c2.1-6.3,2-7.4-1.4-5.7
		l-9,4.1L44.6,160.8z"/>
	<path class="st4" d="M108.2,121.5l-2,6.4c-1.5,4.9-0.8,6.3,2.4,4.8l19.4-9c3.8-1.7,7.2-4.1,10.1-7.2l-6.7,16.8L91.2,152
		c-9,4.2-9.6-0.9-5.2-15l8.6-26.8c4.5-14.1,9-21.7,18.1-25.9l30.7-14.4c9-4.3,9.6,0.9,5.2,15l-6.6,20.8L108.2,121.5z M126.5,101.6
		l2.9-9.2c1.3-3.9,1.1-5.2-1.2-4.1l-8.3,3.9c-2.2,1-3.4,2.9-4.7,6.8l-2.9,9.2L126.5,101.6z"/>
	<path class="st4" d="M236.1,38.8c2.4-3.5,5.7-8.4,7-10.9c1.1-1.8,1.9-3.8,2.4-5.8l20.1-9.4c-6.2,6.8-11.9,14.1-17.2,21.7
		l-45.1,65.2l-25.2,11.7l16.6-51.8l-0.2,0.1l-35.4,60.6l-21.1,9.9l16.2-50.8c3.3-10.4,3.5-12,3.9-16.3l23.8-11.1
		c-1.2,2.1-2,3.7-3.1,6c-1.2,2.8-2.3,5.7-3.1,8.7l-9.1,29.3l0.2-0.1l29.7-50.7L224.4,32l-13.9,43.3l0.2-0.1L236.1,38.8z"/>
	<path class="st0" d="M223.9,101.8c-2.3,0-4.2,1.9-4.2,4.2c0,2.3,1.9,4.2,4.2,4.2c2.3,0,4.2-1.9,4.2-4.2c0,0,0,0,0,0
		c0,0,0-0.1,0-0.1c0-2.2-1.8-4-4-4C224,101.8,224,101.8,223.9,101.8z M223.9,109.2c-1.8,0-3.2-1.5-3.2-3.2s1.5-3.2,3.2-3.2
		c1.8,0,3.2,1.5,3.2,3.2C227.1,107.7,225.7,109.2,223.9,109.2C223.9,109.2,223.9,109.2,223.9,109.2L223.9,109.2z"/>
	<path class="st0" d="M224.7,106.2C224.7,106.2,224.7,106.2,224.7,106.2c0.6,0,1.1-0.5,1.1-1c0,0,0-0.1,0-0.1c0-1-0.7-1.3-1.8-1.3
		h-1.7v4.5h1v-1.9h0.4l1,1.9h1.1L224.7,106.2z M224,105.6h-0.8v-1.1h0.6c0.4,0,0.9,0,0.9,0.5S224.5,105.6,224,105.6z"/>
</g>
</svg>
